<svg width="0" height="0" class="hidden">
  <symbol xmlns="http://www.w3.org/2000/svg" viewBox="0 0 66.591 22.573" id="Visa Logo">
    <path d="M38.35 22.573a14.824 14.824 0 01-6.134-1.232l.808-4.9a9.067 9.067 0 005.3 1.528c2.3 0 3.671-.782 3.671-2.092 0-1.243-1.328-1.976-2.866-2.826A13.568 13.568 0 0136 10.923a5.026 5.026 0 01-1.529-3.7 6.431 6.431 0 011.043-3.654 6.946 6.946 0 012.5-2.2A12.382 12.382 0 0143.574 0a15.239 15.239 0 014.886.95l-.775 4.684a9.415 9.415 0 00-4.357-1.028 5.285 5.285 0 00-2.288.426 1.527 1.527 0 00-.971 1.412c0 .979 1.224 1.668 2.64 2.465 2.2 1.239 4.944 2.782 4.944 6.2a6.635 6.635 0 01-3.261 5.78 11.7 11.7 0 01-6.042 1.684zm14.574-.373H47.26l8.1-20.184A2.533 2.533 0 0157.873.389h4.367L66.591 22.2H61.6l-.638-3.239h-6.905L52.924 22.2zm5.553-15.879l-2.854 8.163h4.461zM28.868 22.2h-5.434L26.83.389h5.434L28.868 22.2zm-12.8 0H10.4L5.687 3.256c-.134-.085-.257-.16-.375-.231l-.292-.173c-.172-.1-.34-.194-.5-.281-.1-.054-.2-.1-.294-.155s-.208-.109-.311-.16-.185-.093-.3-.149c-.093-.046-.186-.089-.277-.132s-.2-.091-.288-.134-.175-.077-.261-.114a19.942 19.942 0 00-.495-.209l-.119-.047-.1-.039-.257-.1-.2-.075-.227-.08c-.062-.022-.125-.044-.184-.063s-.135-.047-.2-.066L.842.994C.751.965.667.94.59.917L.543.9.438.873.33.843.22.814.182.8H.15L.071.776.05.771H.036A.325.325 0 010 .759l.1-.37h8.564a2.371 2.371 0 012.577 1.965l1.828 9.807.614 3.229 5.18-15h5.848L16.066 22.2z" fill="#fff"></path>
  </symbol>
  <symbol xmlns="http://www.w3.org/2000/svg" viewBox="0 0 10 7.862" id="business-and-finance">
    <path d="M0 3.239v3.039a1.481 1.481 0 001.349 1.584h7.3A1.481 1.481 0 0010 6.277V3.238a.258.258 0 00-.235-.276H.235A.258.258 0 000 3.239zm2.5 1.929h-.629a.488.488 0 010-.964H2.5a.488.488 0 010 .964zM10 1.684v-.1A1.481 1.481 0 008.651 0h-7.3A1.481 1.481 0 000 1.584v.1a.258.258 0 00.235.276h9.53A.258.258 0 0010 1.684z"></path>
  </symbol>
  <symbol xmlns="http://www.w3.org/2000/svg" viewBox="0 0 16 15.205" id="file-storage (1)">
    <path d="M.798 4.845v9.766a.6.6 0 00.592.594h13.2a.6.6 0 00.592-.594V4.845zm10.188 3.75a.6.6 0 01-.592.594H5.582a.6.6 0 01-.592-.594V7.389a.6.6 0 01.592-.594h4.807a.6.6 0 01.592.594zM15.39 0H.592A.6.6 0 000 .592v3.509h16V.611A.617.617 0 0015.39 0z"></path>
  </symbol>
  <symbol xmlns="http://www.w3.org/2000/svg" viewBox="0 0 16 13.954" id="megaphone">
    <path d="M14.421 3.321v5.271a2.989 2.989 0 000-5.271zM5.04 8.947v-5.98H1.73A1.732 1.732 0 000 4.697v2.52a1.732 1.732 0 001.73 1.73zM12.312 0a1.53 1.53 0 00-.626.142L5.929 2.721a.465.465 0 01.009.093v6.272a.466.466 0 01-.009.093l5.756 2.579a1.53 1.53 0 00.626.142 1.135 1.135 0 00.87-.385 1.376 1.376 0 00.316-.924V1.309A1.2 1.2 0 0012.312 0zM1.73 9.855a2.665 2.665 0 01-.721-.1l.517 2.585a2.065 2.065 0 001.968 1.614 1.732 1.732 0 001.73-1.73V9.868l-.018-.008zm0 0"></path>
  </symbol>
  <symbol xmlns="http://www.w3.org/2000/svg" viewBox="0 0 16.001 16" id="flights">
    <path d="M15.848 1.984A1.678 1.678 0 0015.71.291a1.679 1.679 0 00-1.689-.137 4.984 4.984 0 00-1.964 1.23l-1.827 1.83-7.592-1.816a.332.332 0 00-.342.091L.834 2.951a.352.352 0 00-.1.308.383.383 0 00.194.274l5.8 3.185-2.96 2.958-2.215-.6a.235.235 0 00-.091-.012.355.355 0 00-.263.1L.1 10.269a.391.391 0 00-.1.285.341.341 0 00.148.263l2.877 2.158 2.158 2.877a.411.411 0 00.274.149h.023a.356.356 0 00.263-.1l1.1-1.1a.348.348 0 00.091-.354l-.605-2.215 2.954-2.956 3.185 5.8a.316.316 0 00.24.183.251.251 0 00.08.011.323.323 0 00.212-.068l1.462-1.1a.346.346 0 00.137-.377l-1.822-7.941 1.838-1.838a4.987 4.987 0 001.233-1.962z" fill="#00d6b5"></path>
  </symbol>
  <symbol xmlns="http://www.w3.org/2000/svg" viewBox="0 0 16 15.205" id="file-storage">
    <path d="M.798 4.845v9.766a.6.6 0 00.592.594h13.2a.6.6 0 00.592-.594V4.845zm10.188 3.75a.6.6 0 01-.592.594H5.582a.6.6 0 01-.592-.594V7.389a.6.6 0 01.592-.594h4.807a.6.6 0 01.592.594zM15.39 0H.592A.6.6 0 000 .592v3.509h16V.611A.617.617 0 0015.39 0z"></path>
  </symbol>
  <symbol xmlns="http://www.w3.org/2000/svg" viewBox="0 0 24 24" id="Group 11889 (1)">
    <path fill="transparent" d="M0 0h24v24H0z"></path>
    <path d="M8.53 18.347H6.693a1.565 1.565 0 110-3.129H9.04a1.565 1.565 0 00-.524 3.039l.015.082zM7.502 9.039a.574.574 0 01-.912.148L5.453 8.059a1.1 1.1 0 010-1.561L6.59 5.37a.573.573 0 01.944.226h.527V4.017a1.239 1.239 0 00-2.107-.875L3.486 5.588a2.388 2.388 0 000 3.388l2.469 2.441a1.239 1.239 0 002.107-.875V9.039z" opacity=".15" fill="#325baf"></path>
    <path d="M17.205 22a2.009 2.009 0 01-2-2.015v-1.659a.781.781 0 111.562 0v1.659a.43.43 0 00.269.416.412.412 0 00.465-.1l2.465-2.443a1.6 1.6 0 000-2.274l-2.467-2.44a.412.412 0 00-.465-.1.43.43 0 00-.269.416v1.74a.781.781 0 01-.781.781H6.689a.781.781 0 000 1.562h1.25a.781.781 0 110 1.562h-1.25a2.344 2.344 0 110-4.687h8.515v-.956a2 2 0 011.231-1.858 1.96 1.96 0 012.166.429l2.465 2.443a3.166 3.166 0 010 4.493l-2.467 2.445a1.972 1.972 0 01-1.394.586zm-9.61-9.614a1.98 1.98 0 001.241-1.854v-.878h8.476a2.344 2.344 0 000-4.687H8.836v-.956a1.98 1.98 0 00-1.241-1.854 2.01 2.01 0 00-2.2.425l-2.46 2.443a3.166 3.166 0 000 4.493L5.4 11.961a2 2 0 001.413.582 2.031 2.031 0 00.782-.157zM6.989 3.6a.435.435 0 01.279.412v1.736a.781.781 0 00.781.781h9.257a.781.781 0 010 1.562H8.054a.781.781 0 00-.781.781v1.66a.456.456 0 01-.773.319L4.035 8.408a1.6 1.6 0 010-2.274L6.5 3.691a.423.423 0 01.305-.131.5.5 0 01.184.04zm-3.5 1.98z" fill="#325baf"></path>
    <path d="M13.012 19.103H10.9a.782.782 0 010-1.564h2.112a.782.782 0 010 1.564z" fill="#23cefd"></path>
  </symbol>
  <symbol xmlns="http://www.w3.org/2000/svg" viewBox="0 0 24 24" id="Group 11889">
    <path fill="transparent" d="M0 0h24v24H0z"></path>
    <path d="M5.185 17.31V6.685a3.916 3.916 0 013.923-3.9h-2.4a3.916 3.916 0 00-3.923 3.9v10.62a3.916 3.916 0 003.927 3.9h2.4a3.916 3.916 0 01-3.927-3.895z" fill="rgba(50,91,175,.15)"></path>
    <path d="M17.313 22H6.688A4.693 4.693 0 012 17.313V6.688A4.693 4.693 0 016.688 2h10.625A4.693 4.693 0 0122 6.688v10.625A4.693 4.693 0 0117.313 22zM6.688 3.562a3.129 3.129 0 00-3.126 3.126v10.625a3.129 3.129 0 003.125 3.125h10.626a3.129 3.129 0 003.125-3.125V6.688a3.129 3.129 0 00-3.125-3.125zm3.554 2.383a.781.781 0 00-.781-.781H6.18a.781.781 0 000 1.563h3.281a.781.781 0 00.781-.782zm7.148 9.1a.781.781 0 00-.781-.781h-6.523a.781.781 0 100 1.562h6.523a.781.781 0 00.782-.779zm1.055 3.047a.781.781 0 00-.781-.781h-1.719a.781.781 0 100 1.562h1.719a.781.781 0 00.781-.779z" fill="#325baf"></path>
    <path d="M17.802 12.796h-5.537a.786.786 0 110-1.571h5.537a.786.786 0 110 1.571zm-1.964-3.809a.785.785 0 00-.785-.785H7.709a.786.786 0 000 1.571h7.344a.785.785 0 00.786-.787z" fill="#23cefd"></path>
  </symbol>
  <symbol xmlns="http://www.w3.org/2000/svg" viewBox="0 0 32 32" id="Deactivate card">
    <g transform="translate(213 -305)">
      <circle cx="16" cy="16" r="16" transform="translate(-213 305)" fill="#325baf"></circle>
      <path d="M-203.037 327.073a1.925 1.925 0 001.919 1.927h7.675a1.925 1.925 0 001.919-1.927v-9.633h-11.513z" fill="#9ac0fa"></path>
      <path d="M-195.361 313.963V313h-3.84v.963h-4.8v2.249h13.44v-2.249z" fill="#f1f3f4"></path>
    </g>
  </symbol>
  <symbol xmlns="http://www.w3.org/2000/svg" viewBox="0 0 32 32" id="GPay">
    <g fill="#fff" stroke="#eee">
      <circle cx="16" cy="16" r="16" stroke="none"></circle>
      <circle cx="16" cy="16" r="15.5" fill="none"></circle>
    </g>
    <g fill-rule="evenodd">
      <path d="M22.241 16.109a8.1 8.1 0 00-.106-1.311h-6.01v2.487h3.443a3 3 0 01-1.274 1.964v1.616h2.053a6.352 6.352 0 001.894-4.756z" fill="#4285f4"></path>
      <path d="M16.125 22.428a6.045 6.045 0 004.222-1.562l-2.053-1.616a3.78 3.78 0 01-2.168.619 3.82 3.82 0 01-3.576-2.666h-2.116v1.67a6.356 6.356 0 005.691 3.555z" fill="#34a853"></path>
      <path d="M12.549 17.204a3.954 3.954 0 010-2.478v-1.661h-2.115a6.492 6.492 0 000 5.8z" fill="#fbbc04"></path>
      <path d="M16.125 12.059a3.4 3.4 0 012.443.97l1.826-1.85a6.1 6.1 0 00-4.269-1.678 6.365 6.365 0 00-5.691 3.564l2.115 1.67a3.816 3.816 0 013.576-2.676z" fill="#ea4335"></path>
    </g>
  </symbol>
  <symbol xmlns="http://www.w3.org/2000/svg" viewBox="0 0 32 32" id="Replace card">
    <g transform="translate(213 -305)">
      <circle cx="16" cy="16" r="16" transform="translate(-213 305)" fill="#325baf"></circle>
      <path d="M-193.482 326.187a6.28 6.28 0 01-3.619 1.139h-.029c-.089 0-.179 0-.269-.006a.587.587 0 00-.049 1.173c.105 0 .212.007.317.007h.029a7.445 7.445 0 004.291-1.35.587.587 0 00-.671-.963zm-8.295-.9a.587.587 0 10-.86.8c.132.143.272.283.414.415a.588.588 0 00.8-.862 5.316 5.316 0 01-.354-.35zm-1.288-2.1a.587.587 0 10-1.1.409c.068.183.144.365.226.542a.586.586 0 101.063-.494 5.715 5.715 0 01-.189-.452zm3.735 3.745a5.876 5.876 0 01-.457-.191.587.587 0 00-.493 1.065c.177.082.359.158.542.226a.587.587 0 00.408-1.1z" stroke-linecap="square" stroke-width=".6" fill="#f1f3f4" stroke="#f1f3f4"></path>
      <path d="M-189.499 320.928v.029a7.4 7.4 0 01-1.178 3.984.588.588 0 01-.809.177.581.581 0 01-.178-.8 6.264 6.264 0 00-5.306-9.653 6.368 6.368 0 00-5.411 3.027h1.339a.583.583 0 110 1.165h0-1.714a1.721 1.721 0 01-1.229-.5 1.74 1.74 0 01-.514-1.257v-1.678a.586.586 0 011.172 0V317a7.513 7.513 0 0111.647-1.315 7.405 7.405 0 012.181 5.243z" fill="#9ac0fa" stroke="#9ac0fa" stroke-linecap="square" stroke-width=".6"></path>
    </g>
  </symbol>
  <symbol xmlns="http://www.w3.org/2000/svg" viewBox="0 0 32 32" id="Set spend limit">
    <g transform="translate(213 -305)">
      <circle cx="16" cy="16" r="16" transform="translate(-213 305)" fill="#325baf"></circle>
      <path d="M-200.827 317.349a.219.219 0 00-.054-.159l-1.737-1.977a.219.219 0 00-.31-.02 9.039 9.039 0 00-1.97 2.46.219.219 0 00.087.3l2.309 1.262a.219.219 0 00.3-.087 5.976 5.976 0 011.3-1.626.219.219 0 00.075-.153zm.753-.72a.219.219 0 00.3.091 5.905 5.905 0 011.979-.637.219.219 0 00.188-.247l-.354-2.608a.22.22 0 00-.247-.188 8.964 8.964 0 00-3 .967.219.219 0 00-.091.3zm-2.803 3.495l-2.54-.689a.219.219 0 00-.269.154 9.059 9.059 0 00-.314 2.371c0 .138 0 .275.01.422a.219.219 0 00.219.209h.01l2.629-.121a.219.219 0 00.209-.229c0-.1-.007-.19-.007-.28a5.986 5.986 0 01.208-1.567.219.219 0 00-.155-.27zm9.784-6.273a8.969 8.969 0 00-3.039-.85.219.219 0 00-.239.2l-.254 2.619a.219.219 0 00.2.239 5.908 5.908 0 012 .56.219.219 0 00.293-.1l1.143-2.371a.219.219 0 00-.104-.297zm3.843 3.668a.219.219 0 00-.024-.166 9.042 9.042 0 00-2.062-2.382.219.219 0 00-.308.032l-1.661 2.042a.219.219 0 00.032.309 5.978 5.978 0 011.364 1.576.219.219 0 00.3.076l2.259-1.35a.22.22 0 00.1-.137zm.838 1.738a.219.219 0 00-.275-.144l-2.511.787a.219.219 0 00-.144.275 5.968 5.968 0 01.272 1.786c0 .09 0 .181-.007.28a.219.219 0 00.209.229l2.629.121h.01a.219.219 0 00.219-.209c.007-.146.01-.284.01-.422a9.035 9.035 0 00-.412-2.703z"></path>
      <path d="M-195.921 323.784l-.111-.02-3.144-2.688a.226.226 0 00-.361.241l1.28 3.926a2.094 2.094 0 00-.048.207 2.058 2.058 0 102.384-1.669z" fill="#f1f3f4"></path>
    </g>
  </symbol>
  <symbol xmlns="http://www.w3.org/2000/svg" viewBox="0 0 32 32" id="Freeze card">
    <defs>
      <clipPath id="a">
        <path transform="translate(-209 321)" fill="#fff" d="M0 0h25v8H0z"></path>
      </clipPath>
    </defs>
    <g transform="translate(213 -305)">
      <circle cx="16" cy="16" r="16" transform="translate(-213 305)" fill="#325baf"></circle>
      <path d="M-190.468 326.196l-1.6-1.601 1.81-.364-.42-2.08-3.197.638-1.852-1.853 2.164-2.164 2.758.919.672-2.015-1.75-.584 1.414-1.415-1.502-1.502-1.414 1.414-.585-1.75-2.014.673.92 2.758-2.165 2.164-1.853-1.852.639-3.197-2.081-.42-.364 1.81-1.6-1.6-1.503 1.502 1.601 1.602-1.811.363.416 2.084 3.2-.64 1.852 1.852-1.852 1.851-3.2-.639-.418 2.083 1.81.361-1.6 1.6 1.504 1.504 1.6-1.6.363 1.812 2.085-.416-.64-3.203 1.85-1.852 1.852 1.852-.64 3.2 2.083.417.364-1.811 1.601 1.601z" fill="#9ac0fa"></path>
      <g clip-path="url(#a)">
        <path d="M-190.468 326.196l-1.6-1.601 1.81-.364-.42-2.08-3.197.638-1.852-1.853 2.164-2.164 2.758.919.672-2.015-1.75-.584 1.414-1.415-1.502-1.502-1.414 1.414-.585-1.75-2.014.673.92 2.758-2.165 2.164-1.853-1.852.639-3.197-2.081-.42-.364 1.81-1.6-1.6-1.503 1.502 1.601 1.602-1.811.363.416 2.084 3.2-.64 1.852 1.852-1.852 1.851-3.2-.639-.418 2.083 1.81.361-1.6 1.6 1.504 1.504 1.6-1.6.363 1.812 2.085-.416-.64-3.203 1.85-1.852 1.852 1.852-.64 3.2 2.083.417.364-1.811 1.601 1.601z" fill="#f1f3f4"></path>
      </g>
    </g>
  </symbol>
  <symbol xmlns="http://www.w3.org/2000/svg" viewBox="0 0 24 24" id="Account">
    <path fill="transparent" opacity=".001" d="M0 0h24v24H0z"></path>
    <path d="M11.86 11.547a5.6 5.6 0 004.091-1.691 5.58 5.58 0 001.692-4.083 5.581 5.581 0 00-1.7-4.082 5.793 5.793 0 00-8.181 0 5.581 5.581 0 00-1.7 4.082 5.58 5.58 0 001.7 4.082 5.605 5.605 0 004.098 1.692zm10.115 6.915a14.244 14.244 0 00-.194-1.515 11.921 11.921 0 00-.373-1.523 7.517 7.517 0 00-.627-1.42 5.36 5.36 0 00-.945-1.23 4.168 4.168 0 00-1.358-.852 4.7 4.7 0 00-1.733-.313 1.76 1.76 0 00-.94.4c-.282.183-.611.4-.979.63a5.612 5.612 0 01-1.266.557 4.923 4.923 0 01-3.1 0 5.6 5.6 0 01-1.265-.557c-.364-.232-.694-.445-.98-.631a1.758 1.758 0 00-.939-.4 4.691 4.691 0 00-1.733.314 4.165 4.165 0 00-1.358.852 5.361 5.361 0 00-.945 1.23 7.532 7.532 0 00-.627 1.42 11.949 11.949 0 00-.373 1.523 14.193 14.193 0 00-.194 1.515 20.45 20.45 0 00-.048 1.416 3.978 3.978 0 001.186 3.014 4.264 4.264 0 003.05 1.111H17.79a4.263 4.263 0 003.05-1.111 3.976 3.976 0 001.184-3.012 20.914 20.914 0 00-.049-1.418zm0 0"></path>
  </symbol>
  <symbol xmlns="http://www.w3.org/2000/svg" viewBox="0 0 24 24" id="Credit">
    <path fill="transparent" d="M0 0h24v24H0z"></path>
    <path d="M12 23.999A12 12 0 013.515 3.515a12 12 0 0116.97 16.971A11.922 11.922 0 0112 23.999zM10.453 9.745v8.837a1.162 1.162 0 001.161 1.161h.775a1.162 1.162 0 001.161-1.161V9.745l3.5 3.652a1.159 1.159 0 001.659.021l.527-.533a1.161 1.161 0 00.342-.827 1.142 1.142 0 00-.342-.812l-6.413-6.422a1.159 1.159 0 00-1.64 0l-6.426 6.422a1.155 1.155 0 00-.342.824 1.142 1.142 0 00.342.815l.527.533a1.166 1.166 0 00.823.339 1.151 1.151 0 00.842-.36l3.5-3.65z" ></path>
  </symbol>
  <symbol xmlns="http://www.w3.org/2000/svg" viewBox="0 0 24 24.25" id="Payments">
    <path fill="transparent" d="M0 .125h24v24H0z"></path>
    <path d="M12 .125a11.837 11.837 0 00-11.669 12 11.838 11.838 0 0011.667 12 11.33 11.33 0 006.651-2.2c.5-.473.811-.529.811-1.041l.007-.1a1.075 1.075 0 00-1.06-1.09 1.026 1.026 0 00-.764.343 9.322 9.322 0 01-5.633 1.9 9.7 9.7 0 01-9.563-9.833 9.567 9.567 0 1119.127 0 10.009 10.009 0 01-.921 4.19 9.724 9.724 0 00-.49 1.185l-.007.1a1.078 1.078 0 001.063 1.092 1.054 1.054 0 001-.776h0a12.189 12.189 0 001.448-5.77A11.835 11.835 0 0012 .125zm-6.516 10.7a1.045 1.045 0 00.3.676 1.026 1.026 0 00.676.3h0a.791.791 0 00.108 0h10.8a1.034 1.034 0 100-2.067l-8.437.012 1.222-1.234A1 1 0 008.74 7.099l-2.956 2.983a.988.988 0 00-.289.632h-.007a.654.654 0 000 .11zm8.247 6.891a1 1 0 001.416 0l2.958-2.978a1 1 0 00.289-.629h.007v-.108h0a1.039 1.039 0 00-.3-.673 1.05 1.05 0 00-.676-.3h0a.791.791 0 00-.108 0h-10.8a1.031 1.031 0 100 2.062l8.439-.012-1.222 1.237a.987.987 0 00-.003 1.401z" stroke="#0c365a" stroke-linecap="round" stroke-linejoin="round" stroke-width=".25"></path>
  </symbol>
  <symbol xmlns="http://www.w3.org/2000/svg" viewBox="0 0 24 24" id="Card">
    <path fill="transparent" d="M0 0h24v24H0z"></path>
    <path d="M23.5 11H.5a.474.474 0 00-.5.5v7.053a2.485 2.485 0 002.5 2.519h19a2.485 2.485 0 002.5-2.519V11.5a.474.474 0 00-.5-.5zm-20 4.03h4a.504.504 0 010 1.008h-4a.504.504 0 010-1.008zm7 3.023h-7a.504.504 0 010-1.008h7a.504.504 0 010 1.008zm8.5 0a1.68 1.68 0 01-1-.3 1.68 1.68 0 01-1 .3 2.015 2.015 0 010-4.03 1.68 1.68 0 011 .3 1.68 1.68 0 011-.3 2.015 2.015 0 010 4.03zM21.5 3h-19C1.1 3 0 4.378 0 6.132v1.253c0 .376.2.626.5.626h23c.3 0 .5-.251.5-.626V6.132C24 4.378 22.9 3 21.5 3z"></path>
  </symbol>
  <symbol xmlns="http://www.w3.org/2000/svg" viewBox="0 0 24 24" id="Home">
    <path fill="transparent" d="M0 0h24v24H0z"></path>
    <path d="M23.5 14.772c0 .067 0 .133-.069.133a.149.149 0 01-.138-.133c-.207-.266-10.675-11.323-11.157-11.723-.207-.2-.275-.133-.482.067C11.588 3.182.707 14.639.569 14.838c-.069.067-.138.067-.138-.067a10.912 10.912 0 01-.413-3.663 10.341 10.341 0 011.515-5.062A11.451 11.451 0 019.384.318 11.829 11.829 0 0120.61 3.582a10.907 10.907 0 013.237 6.261 8.818 8.818 0 01.138 1.932 15.1 15.1 0 01-.485 2.997z"></path>
    <path d="M3.531 20.034c-.069-.067-.138-.133 0-.266s8.195-8.593 8.402-8.793c.069-.067.138-.067.138 0 .275.333 8.2 8.726 8.4 8.859.069.067.069.133-.069.133a9.34 9.34 0 01-1.515 1.266 11.776 11.776 0 01-5.923 2.131 6.121 6.121 0 01-1.1.067 11.907 11.907 0 01-8.333-3.397z"></path>
  </symbol>
  <symbol xmlns="http://www.w3.org/2000/svg" viewBox="0 0 125 35" id="Logo">
    <path d="M17.845 35h-.266a17.655 17.655 0 01-6.7-1.328 17.289 17.289 0 01-5.649-3.75.291.291 0 01-.118-.191.312.312 0 01.118-.207c.091-.089 2.452-2.583 5.185-5.471l.012-.013.019-.021c3.311-3.5 7.064-7.463 7.233-7.628a.225.225 0 01.14-.074c.04 0 .064.027.064.074.089.108 12.079 12.991 12.45 13.231.055.054.077.1.063.141s-.073.059-.165.059a13.867 13.867 0 01-2.245 1.89 17.326 17.326 0 01-8.774 3.188 9.084 9.084 0 01-1.367.1zm57.8-4.183h-2.657c-.2 0-.2-.1-.2-.2v-19.8c0-.2.1-.2.2-.2h2.857c.2 0 .2.1.2.2v2.293a6.1 6.1 0 012.755-2.388 7.169 7.169 0 015.815.178 6.868 6.868 0 013.685 4.4 8.637 8.637 0 01-.612 6.565 6.376 6.376 0 01-5.1 3.481 6.72 6.72 0 01-1.144.1 6.652 6.652 0 01-2.529-.5 6.431 6.431 0 01-2.653-1.89.517.517 0 01-.1-.149.517.517 0 00-.1-.149v7.66c-.012.399-.012.399-.42.399zM80.6 12.772a4.288 4.288 0 00-2.917 1.128 4.48 4.48 0 00-1.634 3.681 5.535 5.535 0 01.2.994 4.588 4.588 0 004.491 3.979h.06a4.539 4.539 0 004.229-2.786 4.88 4.88 0 00.2-3.183 4.52 4.52 0 00-2.959-3.481 4.306 4.306 0 00-1.674-.336zM63.4 25.688a9.524 9.524 0 01-5.613-1.835.283.283 0 01-.155-.164.439.439 0 01.053-.333 6.851 6.851 0 00.556-1.059 9.923 9.923 0 01.464-.931 8.4 8.4 0 011.162.467 12.059 12.059 0 001.287.529 6.213 6.213 0 003.265.4 3.038 3.038 0 001.02-.3 1.429 1.429 0 00.811-1.041 1.4 1.4 0 00-.4-1.246 2.436 2.436 0 00-1.122-.6 14.68 14.68 0 00-1.643-.57 18.78 18.78 0 01-1.01-.326l-1.53-.6a3.936 3.936 0 01.2-7.162 8.824 8.824 0 013.228-.608c.148 0 .3 0 .445.011a11.47 11.47 0 014.382 1.198c.252.1.378.147.407.231s-.048.213-.2.465l-.918 1.791a.667.667 0 00-.056.063c-.036.045-.062.077-.116.077a.326.326 0 01-.134-.041 9.288 9.288 0 00-3.979-1.194 2.732 2.732 0 00-1.532.2 1.3 1.3 0 00-.918 1.093 1.129 1.129 0 00.612 1.293 8.109 8.109 0 002.143.9 13.1 13.1 0 012.551.9 5.662 5.662 0 011.428.9 3.77 3.77 0 011.326 3.481 3.982 3.982 0 01-2.856 3.483 9.5 9.5 0 01-3.158.528zm-16.643-.271a6.025 6.025 0 01-2.338-.469 4.57 4.57 0 01-2.658-2.6 4.407 4.407 0 01.208-3.666 4.353 4.353 0 012.857-2.089 9.534 9.534 0 012.347-.3h4.387c.122 0 .215-.037.239-.093a.1.1 0 00-.035-.106 3.571 3.571 0 00-.1-1.093 2.586 2.586 0 00-2.245-1.89 7.057 7.057 0 00-4.285.5 5.8 5.8 0 00-1.326.8.189.189 0 01-.127.065c-.064 0-.122-.054-.179-.164a18.589 18.589 0 01-1.123-1.891c-.054-.053-.077-.1-.063-.139s.073-.059.165-.059a12.006 12.006 0 016.4-1.837c.349 0 .7.015 1.051.046a5.737 5.737 0 012.244.6 4.96 4.96 0 012.853 3.868 26.217 26.217 0 01.1 2.886v7.362c0 .2-.1.2-.2.2h-2.758c-.2 0-.2-.1-.2-.2v-1.592a8.449 8.449 0 01-4.285 1.789 6.089 6.089 0 01-.932.071zm.724-6.736a7.07 7.07 0 00-1.939.3 1.686 1.686 0 00-1.122 1.194 2.22 2.22 0 001.632 2.586 4.745 4.745 0 003.675-.4 2.822 2.822 0 001.836-2.886 1.709 1.709 0 00.1-.6c0-.2-.1-.2-.2-.2zm70.361 6.7a9.277 9.277 0 01-3.114-.536 6.622 6.622 0 01-4.489-5.373 7.328 7.328 0 01.51-4.675 7.041 7.041 0 015.509-4.177 10.1 10.1 0 013.877.1 5.639 5.639 0 014.389 4.078 10.17 10.17 0 01.408 4.278c0 .2-.1.2-.2.2h-5.511a34.077 34.077 0 00-4.589-.311c-.3 0-.615 0-.92.012a.249.249 0 00-.225.086.215.215 0 00.021.212 4.662 4.662 0 004.558 3.482h.225a5.735 5.735 0 003.993-1.595.2.2 0 01.153-.073.194.194 0 01.153.073c.254.248.487.5.713.744s.461.5.717.748a.188.188 0 01.075.149.192.192 0 01-.075.15 9.033 9.033 0 01-4.083 2.188 9.33 9.33 0 01-2.098.243zm-.122-12.545a4.3 4.3 0 00-2.515.8 4.138 4.138 0 00-1.7 2.85c-.04.076-.05.125-.032.154s.114.044.236.044h8.163c.2 0 .2-.1.2-.2a4.665 4.665 0 00-.714-2.089 3.849 3.849 0 00-2.858-1.485 4.366 4.366 0 00-.783-.071zM95.164 25.248h-2.787c-.2 0-.2 0-.2-.2V10.722c0-.2.1-.2.2-.2h2.755c.2 0 .2.1.2.2l.1 14.226a.266.266 0 01-.078.222.279.279 0 01-.19.078zm8.371-.2h-2.789c-.2 0-.2-.1-.2-.2V10.522c0-.2.1-.2.2-.2h2.854c.2 0 .2.1.2.2v2.387a5.694 5.694 0 01.408-.5 5.61 5.61 0 013.979-2.088.906.906 0 00.218-.041 1.06 1.06 0 01.266-.048.313.313 0 01.23.089.457.457 0 01.115.447 1.189 1.189 0 00-.013.15v2.088c0 .2-.1.2-.2.2a5.36 5.36 0 00-.38-.014 5.02 5.02 0 00-2.58.71 4.077 4.077 0 00-2.04 3.582c-.068 1.662-.045 3.3-.023 4.881.011.785.023 1.59.023 2.38a.268.268 0 01-.08.222.278.278 0 01-.188.082zm-68.813-2.787a.223.223 0 01-.2-.2c-.078-.1-15.612-16.741-16.531-17.509-.13-.126-.222-.18-.307-.18-.12 0-.228.105-.407.279-.141.136-16.231 17.213-16.434 17.511a.192.192 0 01-.119.065.067.067 0 01-.061-.039.264.264 0 01-.024-.126 16.383 16.383 0 01-.612-5.472 15.577 15.577 0 012.244-7.56A16.916 16.916 0 0113.9.475 17.591 17.591 0 0117.963 0a17.413 17.413 0 0112.575 5.35 16.424 16.424 0 014.8 9.351 13.208 13.208 0 01.2 2.884 22.708 22.708 0 01-.714 4.477c0 .103 0 .199-.102.199zM93.745 8.036a1.891 1.891 0 01-1.329-.536 1.811 1.811 0 01-.549-1.354 2.01 2.01 0 011.939-1.989h.038a1.932 1.932 0 011.379.578 1.84 1.84 0 01.52 1.411 1.879 1.879 0 01-.567 1.336 1.983 1.983 0 01-1.371.553z" fill="#01d167"></path>
  </symbol>
</svg>